# xmcd
#
# Track frame offsets: 
#        150
#        13515
#        27892
#
# Disc length: 554 seconds
#
# Revision: 0
# Processed by: cddbd v1.4b42PL1 Copyright (c) Steve Scherf et al.
# Submitted via: ExactAudioCopy v0.90a11
#
DISCID=16022803
DTITLE=Nut - Brains
DYEAR=1900
DGENRE=
TTITLE0=Brains
TTITLE1=Burp
TTITLE2=Blow
EXTD=
EXTT0=
EXTT1=
EXTT2=
PLAYORDER=
